<svg viewBox="0 0 1200 800" xmlns="http://www.w3.org/2000/svg" role="img" aria-label="Baobab wilderness and river in Ruaha National Park">
  <defs>
    <linearGradient id="skyR" x1="0" y1="0" x2="0" y2="1">
      <stop offset="0%" stop-color="#12190f"/>
      <stop offset="55%" stop-color="#5a3a22"/>
      <stop offset="100%" stop-color="#c1652e"/>
    </linearGradient>
  </defs>
  <rect width="1200" height="800" fill="url(#skyR)"/>
  <circle cx="250" cy="240" r="85" fill="#e0a94e" opacity="0.85"/>
  <path d="M0,480 Q300,410 600,460 T1200,440 V800 H0 Z" fill="#364227" opacity="0.5"/>
  <!-- river ribbon -->
  <path d="M0,560 Q300,540 500,580 T1200,560 L1200,600 Q900,620 600,600 Q300,580 0,600 Z" fill="#8a9a74" opacity="0.4"/>
  <path d="M0,660 Q300,610 600,640 T1200,620 V800 H0 Z" fill="#212b1b" opacity="0.9"/>
  <!-- baobab cluster -->
  <g fill="#12190f">
    <path d="M850,660 C835,600 838,540 870,505 C858,490 862,462 888,455 C884,432 910,412 932,432 C954,412 980,432 972,458 C998,462 1002,492 980,506 C1008,540 1004,600 976,660 C954,636 946,600 954,564 C932,586 902,586 884,564 C888,600 876,636 850,660 Z"/>
  </g>
  <!-- lion on rock -->
  <g fill="#12190f" transform="translate(420,690) scale(1.1)">
    <path d="M-40,10 L40,10 L36,-6 L-36,-6 Z"/>
    <path d="M0,-6 C-16,-6 -26,-16 -22,-30 C-26,-40 -18,-50 -8,-46 C-2,-54 8,-54 12,-46 C22,-50 30,-40 26,-30 C30,-16 16,-6 0,-6 Z"/>
    <circle cx="0" cy="-30" r="12"/>
  </g>
  <path d="M0,740 Q300,700 600,725 T1200,710 V800 H0 Z" fill="#12190f"/>
</svg>
